<svg width="20" height="20" viewBox="0 0 20 20" fill="none" xmlns="http://www.w3.org/2000/svg">
<g clip-path="url(#clip0_370_283)">
<path d="M10.3996 16.6153C12.0134 16.4014 13.4885 15.5554 14.5251 14.2493C15.5616 12.9432 16.0818 11.2749 15.9799 9.58363C15.878 7.89233 15.1617 6.3049 13.9766 5.14397C12.7915 3.98305 11.2265 3.33576 9.59961 3.33366C7.97078 3.3324 6.40277 3.97811 5.21508 5.13922C4.02739 6.30034 3.3094 7.88949 3.2074 9.58286C3.10541 11.2762 3.62708 12.9464 4.66612 14.253C5.70517 15.5597 7.1834 16.4045 8.79961 16.6153V11.667H7.19961V10.0003H8.79961V8.62199C8.79961 7.50782 8.91161 7.10366 9.11961 6.69616C9.3245 6.29298 9.64118 5.9634 10.0284 5.75032C10.334 5.57949 10.714 5.47699 11.378 5.43282C11.6412 5.41532 11.982 5.43699 12.4004 5.49949V7.08282H11.9996C11.266 7.08282 10.9628 7.11866 10.782 7.21949C10.6741 7.27729 10.5863 7.36878 10.5308 7.48116C10.4348 7.66949 10.3996 7.85616 10.3996 8.62116V10.0003H12.3996L11.9996 11.667H10.3996V16.6153ZM9.59961 18.3337C5.18121 18.3337 1.59961 14.6028 1.59961 10.0003C1.59961 5.39783 5.18121 1.66699 9.59961 1.66699C14.018 1.66699 17.5996 5.39783 17.5996 10.0003C17.5996 14.6028 14.018 18.3337 9.59961 18.3337Z" fill="#F0F0F0"/>
</g>
<defs>
<clipPath id="clip0_370_283">
<rect width="19.2" height="20" fill="white"/>
</clipPath>
</defs>
</svg>
