<svg width="20" height="20" viewBox="0 0 20 20" fill="none" xmlns="http://www.w3.org/2000/svg">
<g clip-path="url(#clip0_370_286)">
<path d="M10.3984 7.50033C9.76192 7.50033 9.15147 7.76372 8.70138 8.23256C8.25129 8.7014 7.99844 9.33728 7.99844 10.0003C7.99844 10.6634 8.25129 11.2993 8.70138 11.7681C9.15147 12.2369 9.76192 12.5003 10.3984 12.5003C11.035 12.5003 11.6454 12.2369 12.0955 11.7681C12.5456 11.2993 12.7984 10.6634 12.7984 10.0003C12.7984 9.33728 12.5456 8.7014 12.0955 8.23256C11.6454 7.76372 11.035 7.50033 10.3984 7.50033ZM10.3984 5.83366C11.4593 5.83366 12.4767 6.27265 13.2269 7.05405C13.977 7.83545 14.3984 8.89526 14.3984 10.0003C14.3984 11.1054 13.977 12.1652 13.2269 12.9466C12.4767 13.728 11.4593 14.167 10.3984 14.167C9.33757 14.167 8.32016 13.728 7.57001 12.9466C6.81987 12.1652 6.39844 11.1054 6.39844 10.0003C6.39844 8.89526 6.81987 7.83545 7.57001 7.05405C8.32016 6.27265 9.33757 5.83366 10.3984 5.83366V5.83366ZM15.5984 5.62533C15.5984 5.90159 15.4931 6.16654 15.3055 6.3619C15.118 6.55725 14.8637 6.66699 14.5984 6.66699C14.3332 6.66699 14.0789 6.55725 13.8913 6.3619C13.7038 6.16654 13.5984 5.90159 13.5984 5.62533C13.5984 5.34906 13.7038 5.08411 13.8913 4.88876C14.0789 4.69341 14.3332 4.58366 14.5984 4.58366C14.8637 4.58366 15.118 4.69341 15.3055 4.88876C15.4931 5.08411 15.5984 5.34906 15.5984 5.62533V5.62533ZM10.3984 3.33366C8.41924 3.33366 8.09604 3.33949 7.17524 3.38199C6.54804 3.41283 6.12724 3.50033 5.73684 3.65866C5.38964 3.79866 5.13924 3.96616 4.87284 4.24449C4.62244 4.49649 4.42992 4.80415 4.30964 5.14449C4.15764 5.55283 4.07364 5.99033 4.04484 6.64283C4.00324 7.56283 3.99844 7.88449 3.99844 10.0003C3.99844 12.062 4.00404 12.3987 4.04484 13.3578C4.07444 14.0103 4.15844 14.4495 4.30964 14.8553C4.44564 15.2178 4.60564 15.4787 4.87124 15.7553C5.14084 16.0353 5.39124 16.2028 5.73524 16.3412C6.13044 16.5003 6.55124 16.5887 7.17524 16.6187C8.05844 16.662 8.36724 16.667 10.3984 16.667C12.3776 16.667 12.7008 16.6612 13.6216 16.6187C14.2472 16.5878 14.6688 16.5003 15.0592 16.3428C15.4056 16.202 15.6576 16.0345 15.9232 15.7578C16.1928 15.477 16.3536 15.2162 16.4864 14.8578C16.6384 14.447 16.7232 14.0078 16.752 13.3578C16.7936 12.4378 16.7984 12.1162 16.7984 10.0003C16.7984 7.93866 16.7928 7.60199 16.752 6.64283C16.7224 5.99116 16.6384 5.55116 16.4864 5.14449C16.3659 4.80449 16.1737 4.49696 15.924 4.24449C15.6822 3.98353 15.3868 3.78296 15.06 3.65783C14.668 3.49949 14.2472 3.41199 13.6216 3.38199C12.7384 3.33866 12.4296 3.33366 10.3984 3.33366ZM10.3984 1.66699C12.572 1.66699 12.8432 1.67533 13.696 1.71699C14.548 1.75866 15.128 1.89783 15.6384 2.10449C16.1664 2.31616 16.6112 2.60283 17.056 3.06533C17.4628 3.48191 17.7776 3.98582 17.9784 4.54199C18.176 5.07283 18.3104 5.67783 18.3504 6.56533C18.388 7.45366 18.3984 7.73616 18.3984 10.0003C18.3984 12.2645 18.3904 12.547 18.3504 13.4353C18.3104 14.3228 18.176 14.927 17.9784 15.4587C17.7782 16.0151 17.4633 16.5192 17.056 16.9353C16.656 17.3589 16.1723 17.6868 15.6384 17.8962C15.1288 18.102 14.548 18.242 13.696 18.2837C12.8432 18.3228 12.572 18.3337 10.3984 18.3337C8.22484 18.3337 7.95364 18.3253 7.10084 18.2837C6.24884 18.242 5.66884 18.102 5.15844 17.8962C4.6243 17.6874 4.14046 17.3594 3.74084 16.9353C3.33396 16.5188 3.01918 16.0149 2.81844 15.4587C2.62004 14.9278 2.48644 14.3228 2.44644 13.4353C2.40884 12.547 2.39844 12.2645 2.39844 10.0003C2.39844 7.73616 2.40644 7.45366 2.44644 6.56533C2.48644 5.67699 2.62004 5.07366 2.81844 4.54199C3.01863 3.98547 3.33348 3.48143 3.74084 3.06533C4.14057 2.64135 4.62438 2.31343 5.15844 2.10449C5.66884 1.89783 6.24804 1.75866 7.10084 1.71699C7.95364 1.67783 8.22484 1.66699 10.3984 1.66699Z" fill="#F0F0F0"/>
</g>
<defs>
<clipPath id="clip0_370_286">
<rect width="19.2" height="20" fill="white" transform="translate(0.798828)"/>
</clipPath>
</defs>
</svg>
