<svg width="165" height="44" viewBox="0 0 165 44" fill="none" xmlns="http://www.w3.org/2000/svg">
<path d="M63.216 17.38C59.674 17.38 58.244 19.602 58.244 21.384C58.244 26.906 67.704 25.41 67.132 30.096C66.956 31.482 65.394 32.692 63.524 32.692C60.642 32.692 58.596 30.69 57.474 28.446H57.32L56.66 30.954C58.376 32.252 60.004 33.132 62.622 33.132C65.746 33.132 68.1 31.284 68.1 28.666C68.1 23.166 58.662 24.618 59.08 20.218C59.212 18.898 60.466 17.666 62.644 17.666C64.382 17.666 65.988 18.788 67.242 21.736H67.396L68.056 19.448C66.758 18.436 64.91 17.38 63.216 17.38ZM82.5117 17.6C82.5117 17.6 82.5117 17.732 82.5117 17.776C83.5897 17.93 84.1617 19.272 84.1617 20.482V27.83C84.1617 30.294 82.5117 32.648 79.8057 32.868C76.6157 33.132 74.7457 30.932 74.7457 27.302V19.074C74.7457 18.282 74.8997 17.974 75.2297 17.776C75.2297 17.732 75.2297 17.6 75.2297 17.6H72.5017C72.5017 17.6 72.5017 17.732 72.5017 17.776C72.8537 17.974 73.0077 18.282 73.0077 19.074V27.302C73.0077 31.306 75.7577 33.132 79.0357 33.132C82.1377 33.132 84.3157 30.888 84.3157 27.83V20.24C84.3157 19.294 84.5357 18.15 85.2397 17.776C85.2397 17.732 85.2397 17.6 85.2397 17.6H82.5117ZM95.5337 17.38C91.9917 17.38 90.5617 19.602 90.5617 21.384C90.5617 26.906 100.022 25.41 99.4497 30.096C99.2737 31.482 97.7117 32.692 95.8417 32.692C92.9597 32.692 90.9137 30.69 89.7917 28.446H89.6377L88.9777 30.954C90.6937 32.252 92.3217 33.132 94.9397 33.132C98.0637 33.132 100.418 31.284 100.418 28.666C100.418 23.166 90.9797 24.618 91.3977 20.218C91.5297 18.898 92.7837 17.666 94.9617 17.666C96.6997 17.666 98.3057 18.788 99.5597 21.736H99.7137L100.374 19.448C99.0757 18.436 97.2277 17.38 95.5337 17.38ZM119.95 28.578C118.828 30.778 117.134 32.076 115.154 32.362C111.282 32.956 108.114 30.932 106.926 27.06C105.738 23.166 107.102 18.722 110.864 17.908C113.746 17.292 116.364 19.184 117.97 21.736H118.124L118.784 19.228C116.914 17.996 115.484 17.38 113.108 17.38C108.752 17.38 104.814 20.9 104.814 25.256C104.814 29.612 108.576 33.132 112.91 33.132C116.804 33.132 118.916 31.108 120.104 28.644L119.95 28.578ZM134.028 30.25C132.994 31.592 131.19 32.846 128.748 32.846H126.746V19.074C126.746 18.282 126.9 17.974 127.23 17.776C127.23 17.732 127.23 17.6 127.23 17.6H124.502C124.502 17.6 124.502 17.732 124.502 17.776C124.854 17.974 125.008 18.282 125.008 19.074V31.548C125.008 32.318 124.854 32.648 124.502 32.846C124.502 32.89 124.502 33 124.502 33H133.676L134.16 30.338L134.028 30.25ZM145.676 17.38C141.32 17.38 137.69 20.9 137.69 25.256C137.69 29.59 141.32 33.132 145.676 33.132C150.032 33.132 153.662 29.59 153.662 25.256C153.662 20.9 150.032 17.38 145.676 17.38ZM147.92 32.604C144.246 33.726 140.99 30.932 139.802 27.038C138.614 23.166 139.758 19.03 143.432 17.908C147.106 16.786 150.362 19.58 151.55 23.452C152.738 27.346 151.594 31.482 147.92 32.604Z" fill="#1A3722"/>
<ellipse cx="22.4906" cy="22" rx="22.4906" ry="22" fill="#1A3722"/>
<path d="M21.4558 38.4302C21.4774 38.2417 21.4967 38.0549 21.5138 37.8698M21.5138 37.8698C22.6068 26.0466 14.7704 21.0154 10.6512 19.9731C18.255 21.4676 20.5622 25.727 20.7653 27.6698C25.2171 19.2408 15.8775 17.4574 10.6512 17.6193C7.56417 17.6193 5.81757 18.79 5.33014 19.3753C7.37733 19.8536 9.18893 22.6632 9.83883 24.0083C12.016 31.3313 15.9723 31.4683 17.6783 30.6215C28.5966 25.3309 23.4461 14.9416 19.5061 10.4083C23.0156 12.7995 24.0825 15.7138 24.1773 16.872C27.6217 10.5055 21.2798 7.56877 17.6783 6.89624C18.1007 9.407 17.6376 11.9028 17.3533 12.8369C16.8659 16.6628 20.481 18.5409 22.3494 19.0017C25.0465 29.6127 30.9471 27.757 33.5602 25.5028C36.4523 21.0791 39.6666 19.5746 40.9122 19.3753C36.4279 13.4571 28.9432 16.1123 25.7614 18.1797C24.4941 19.9231 24.9355 22.219 25.3146 23.1489C29.8314 19.1736 34.3455 18.4288 36.038 18.5534C23.8198 21.8413 22.1193 33.1746 22.7962 38.4302C21.1715 40.403 21.2643 38.8786 21.5138 37.8698Z" stroke="#CCDFB3"/>
</svg>
