<svg width="249" height="249" viewBox="0 0 249 249" fill="none" xmlns="http://www.w3.org/2000/svg">
<circle cx="124.5" cy="124.5" r="124.5" fill="#1A3722"/>
<path d="M123.887 82.6626V72.3315C126.146 70.8557 129.221 67.6708 130.665 65.6902C134.431 60.5247 128.946 53.4639 127.653 52.4075" stroke="#E2E2E2" stroke-width="3" stroke-linecap="round"/>
<path d="M109.578 59.7868C109.327 58.5569 109.911 56.8351 110.664 55.3592C111.267 54.1784 115.603 50.1937 119.368 50.1937" stroke="#E2E2E2" stroke-width="3" stroke-linecap="round"/>
<path d="M118.615 50.1937C121.126 49.7018 124.64 50.0461 127.653 52.4075" stroke="#E2E2E2" stroke-width="3" stroke-linecap="round"/>
<path d="M123.134 84.1384C127.653 83.6464 138.949 87.6804 147.986 107.752" stroke="#E2E2E2" stroke-width="3" stroke-linecap="round"/>
<path d="M147.986 107.752C161.793 116.853 193.173 134.317 196.185 136.531" stroke="#E2E2E2" stroke-width="3" stroke-linecap="round"/>
<path d="M195.432 135.793C201.457 141.697 199.951 146.124 190.16 146.124" stroke="#E2E2E2" stroke-width="3" stroke-linecap="round"/>
<path d="M149.493 146.124H191.666" stroke="#E2E2E2" stroke-width="3" stroke-linecap="round"/>
<path d="M102.047 108.49C104.808 101.357 110.934 87.0901 122.381 84.1384" stroke="#E2E2E2" stroke-width="3" stroke-linecap="round"/>
<path d="M53.0951 135.793C52.342 132.842 75.5376 125.167 102.047 109.228" stroke="#E2E2E2" stroke-width="3" stroke-linecap="round"/>
<path d="M86.985 143.91H55.3546C52.8443 143.419 47.8236 141.992 53.8484 134.317" stroke="#E2E2E2" stroke-width="3" stroke-linecap="round"/>
<path d="M150.246 118.083C146.229 130.382 144.221 145.386 135.184 152.766" stroke="#E2E2E2" stroke-width="2" stroke-linecap="round"/>
<path d="M99.788 152.028C98.0308 148.338 96.4741 138.45 104.306 125.462" stroke="#E2E2E2" stroke-width="2" stroke-linecap="round"/>
<path d="M87.738 169C96.5242 156.947 118.013 131.513 133.677 126.2" stroke="#E2E2E2" stroke-width="2.5" stroke-linecap="round" stroke-linejoin="round"/>
<path d="M104.306 125.462C110.331 120.051 128.104 110.999 150.999 118.083" stroke="#E2E2E2" stroke-width="2" stroke-linecap="round"/>
<path d="M150.246 118.083C146.229 130.382 144.221 145.386 135.184 152.766" stroke="#E2E2E2" stroke-width="2" stroke-linecap="round"/>
<path d="M99.788 152.028C98.0308 148.338 96.4741 138.45 104.306 125.462" stroke="#E2E2E2" stroke-width="2" stroke-linecap="round"/>
<path d="M87.738 169C96.5242 156.947 118.013 131.513 133.677 126.2" stroke="#E2E2E2" stroke-width="2.5" stroke-linecap="round" stroke-linejoin="round"/>
<path d="M104.306 125.462C110.331 120.051 128.104 110.999 150.999 118.083" stroke="#E2E2E2" stroke-width="2" stroke-linecap="round"/>
<path d="M137.443 150.552C131.92 156.701 115.151 167.524 101.294 155.717" stroke="#E2E2E2" stroke-width="2" stroke-linecap="round"/>
<ellipse cx="120.875" cy="60.5247" rx="9.03724" ry="8.85513" fill="#1A3722"/>
<path d="M22.2411 172.189L33.2342 167.009L34.4513 169.592C34.7981 170.328 35.0091 170.886 35.0844 171.267C35.1671 171.65 35.1696 172.019 35.092 172.374C34.9901 172.819 34.7663 173.234 34.4207 173.617C34.0801 173.997 33.6495 174.311 33.1289 174.556C32.2278 174.98 31.4229 175.051 30.7141 174.767C30.0126 174.486 29.4331 173.86 28.9755 172.888L28.8658 172.656L25.6025 179.323L24.8205 177.663L28.1723 171.184L28.0839 170.996L22.8426 173.466L22.2411 172.189ZM32.7319 168.806L29.0525 170.54L29.5231 171.538C30.0043 172.56 30.4564 173.182 30.8795 173.404C31.3076 173.625 31.8495 173.58 32.5053 173.271C33.2111 172.939 33.6205 172.529 33.7333 172.041C33.8512 171.551 33.6742 170.806 33.2025 169.805L32.7319 168.806Z" fill="#F0F0F0"/>
<path d="M33.399 190.163C33.7742 190.711 34.2334 191.161 34.7766 191.513C35.3275 191.867 35.9375 192.107 36.6068 192.232C37.2684 192.356 37.9184 192.35 38.5567 192.214C39.1951 192.079 39.7928 191.82 40.3498 191.439C40.9114 191.054 41.3736 190.583 41.7366 190.026C42.1026 189.474 42.3468 188.87 42.4691 188.217C42.5928 187.555 42.5869 186.905 42.4515 186.267C42.3193 185.633 42.0639 185.04 41.6856 184.487C41.304 183.93 40.8401 183.473 40.2938 183.116C39.7475 182.759 39.1467 182.524 38.4914 182.409C37.8253 182.289 37.1707 182.298 36.5278 182.436C35.8849 182.575 35.2826 182.836 34.721 183.221C34.164 183.602 33.7078 184.062 33.3523 184.601C32.9999 185.144 32.7589 185.752 32.6292 186.424C32.5026 187.101 32.5038 187.754 32.633 188.384C32.7653 189.017 33.0206 189.611 33.399 190.163ZM41.2035 192.685C40.4867 193.176 39.7203 193.507 38.9043 193.677C38.0883 193.846 37.2602 193.847 36.42 193.678C35.5798 193.509 34.7983 193.185 34.0755 192.708C33.3604 192.232 32.7605 191.64 32.2758 190.932C31.7911 190.225 31.456 189.451 31.2705 188.613C31.0927 187.775 31.0768 186.934 31.2228 186.09C31.3702 185.237 31.669 184.459 32.1191 183.755C32.5724 183.056 33.1551 182.462 33.8673 181.974C34.5841 181.483 35.3505 181.153 36.1665 180.983C36.9902 180.815 37.826 180.816 38.6739 180.986C39.5064 181.154 40.2802 181.476 40.9953 181.952C41.7104 182.428 42.3103 183.02 42.795 183.727C43.2828 184.44 43.6195 185.215 43.805 186.054C43.9936 186.897 44.0156 187.738 43.8711 188.574C43.7251 189.419 43.4232 190.192 42.9654 190.895C42.5122 191.594 41.9249 192.191 41.2035 192.685Z" fill="#F0F0F0"/>
<path d="M46.304 199.374L42.3365 203.116L41.3683 202.089L50.209 193.751L51.9575 195.605C52.5688 196.254 52.9845 196.763 53.2046 197.133C53.4247 197.504 53.5626 197.876 53.6182 198.249C53.6827 198.721 53.6139 199.201 53.4117 199.688C53.2133 200.179 52.9008 200.626 52.474 201.029C52.0473 201.431 51.5829 201.717 51.0808 201.886C50.5824 202.06 50.0997 202.1 49.6327 202.008C49.259 201.935 48.8937 201.777 48.5367 201.536C48.1835 201.298 47.6993 200.854 47.0842 200.201L46.8051 199.906L46.304 199.374ZM47.2581 198.474L47.7593 199.006C48.6098 199.908 49.2859 200.415 49.7876 200.527C50.2971 200.64 50.8156 200.448 51.3429 199.95C51.9065 199.419 52.1512 198.884 52.0769 198.345C52.0064 197.811 51.5536 197.101 50.7182 196.215L50.217 195.684L47.2581 198.474Z" fill="#F0F0F0"/>
<path d="M60.425 207.182L56.1138 209.456L59.128 211.881L60.425 207.182ZM62.4279 204.692L58.8178 218.001L57.5953 217.018L58.7022 213.125L55.0023 210.15L51.4375 212.065L50.215 211.082L62.4279 204.692Z" fill="#F0F0F0"/>
<path d="M81.8654 230.776L85.9063 220.788L83.6055 219.857L84.8328 218.993L87.6876 220.148L83.1736 231.305L81.8654 230.776Z" fill="#F0F0F0"/>
<path d="M97.6261 236.287C96.3516 235.978 95.4777 235.191 95.0044 233.926C94.5379 232.657 94.5362 231.068 94.9993 229.159C95.4598 227.26 96.1849 225.856 97.1744 224.946C98.1706 224.031 99.3006 223.727 100.564 224.034C101.855 224.347 102.733 225.13 103.198 226.381C103.663 227.633 103.662 229.221 103.195 231.147C102.729 233.067 102.002 234.482 101.012 235.392C100.029 236.298 98.9007 236.596 97.6261 236.287ZM97.8898 235.13C98.7557 235.34 99.5135 235.08 100.163 234.349C100.82 233.614 101.345 232.435 101.739 230.811C102.135 229.181 102.209 227.889 101.962 226.935C101.722 225.978 101.169 225.393 100.303 225.183C99.4691 224.981 98.7127 225.259 98.0335 226.017C97.361 226.77 96.8349 227.93 96.4552 229.495C96.073 231.07 96.0068 232.353 96.2566 233.341C96.5119 234.331 97.0563 234.928 97.8898 235.13Z" fill="#F0F0F0"/>
<path d="M113.72 239.033C112.413 238.913 111.434 238.262 110.781 237.079C110.135 235.892 109.901 234.32 110.08 232.364C110.259 230.418 110.771 228.923 111.618 227.878C112.47 226.829 113.543 226.363 114.838 226.482C116.161 226.603 117.143 227.249 117.786 228.42C118.429 229.59 118.66 231.162 118.479 233.135C118.298 235.102 117.785 236.608 116.939 237.653C116.099 238.693 115.026 239.153 113.72 239.033ZM113.811 237.849C114.699 237.931 115.41 237.563 115.947 236.745C116.489 235.922 116.837 234.679 116.989 233.015C117.143 231.345 117.028 230.056 116.644 229.148C116.267 228.236 115.634 227.739 114.747 227.657C113.893 227.579 113.185 227.964 112.624 228.813C112.068 229.656 111.717 230.88 111.57 232.484C111.422 234.098 111.543 235.377 111.935 236.318C112.332 237.261 112.957 237.771 113.811 237.849Z" fill="#F0F0F0"/>
<path d="M136.986 235.811C137.049 236.805 136.881 237.593 136.48 238.173C136.084 238.747 135.494 239.059 134.71 239.11C133.931 239.16 133.304 238.923 132.826 238.399C132.349 237.875 132.079 237.119 132.015 236.13C131.952 235.142 132.123 234.357 132.53 233.777C132.936 233.196 133.529 232.881 134.307 232.831C135.091 232.78 135.717 233.018 136.183 233.542C136.655 234.066 136.922 234.823 136.986 235.811ZM134.656 238.265C135.065 238.239 135.367 238.02 135.562 237.608C135.757 237.196 135.832 236.623 135.784 235.888C135.736 235.132 135.592 234.57 135.352 234.203C135.112 233.83 134.782 233.657 134.362 233.684C133.959 233.71 133.66 233.929 133.464 234.34C133.268 234.747 133.194 235.317 133.241 236.052C133.288 236.786 133.435 237.345 133.682 237.728C133.928 238.112 134.253 238.291 134.656 238.265ZM127.55 232.399C127.959 232.373 128.261 232.154 128.457 231.742C128.652 231.33 128.726 230.757 128.679 230.023C128.63 229.266 128.486 228.701 128.246 228.329C128.005 227.95 127.675 227.775 127.255 227.802C126.852 227.828 126.553 228.049 126.358 228.466C126.163 228.878 126.089 229.451 126.136 230.186C126.183 230.92 126.33 231.479 126.576 231.863C126.823 232.246 127.147 232.425 127.55 232.399ZM129.897 229.945C129.96 230.933 129.791 231.715 129.39 232.289C128.989 232.864 128.393 233.177 127.604 233.228C126.819 233.278 126.189 233.044 125.712 232.525C125.241 232.007 124.973 231.253 124.91 230.265C124.846 229.276 125.018 228.491 125.424 227.911C125.831 227.33 126.423 227.015 127.202 226.965C127.986 226.915 128.614 227.152 129.086 227.676C129.563 228.2 129.833 228.956 129.897 229.945ZM127.296 239.585L133.464 226.563L134.483 226.498L128.332 239.519L127.296 239.585Z" fill="#F0F0F0"/>
<path d="M163.841 232.493L154.569 222.502L156.036 221.947L162.663 229.38L162.698 219.428L164.157 218.876L163.841 232.493Z" fill="#F0F0F0"/>
<path d="M174.487 227.345L168.722 216.647L174.363 213.607L174.989 214.769L170.62 217.124L172.274 220.193L176.643 217.838L177.281 219.022L172.911 221.377L175.121 225.476L179.49 223.121L180.128 224.305L174.487 227.345Z" fill="#F0F0F0"/>
<path d="M188.435 211.147L192.441 208.132L192.685 208.457C193.837 209.986 194.312 211.519 194.111 213.056C193.911 214.592 193.061 215.925 191.562 217.053C191.107 217.396 190.635 217.675 190.146 217.891C189.661 218.103 189.175 218.248 188.686 218.325C187.56 218.487 186.492 218.346 185.479 217.903C184.463 217.455 183.586 216.741 182.847 215.759C182.238 214.95 181.817 214.124 181.584 213.281C181.353 212.43 181.311 211.561 181.46 210.673C181.585 209.928 181.857 209.232 182.276 208.583C182.696 207.935 183.257 207.346 183.96 206.817C184.893 206.115 185.83 205.676 186.771 205.501C187.71 205.321 188.661 205.401 189.624 205.743L189.24 207.248C188.448 206.922 187.681 206.81 186.94 206.911C186.195 207.008 185.478 207.316 184.789 207.835C183.661 208.684 183.032 209.753 182.902 211.043C182.771 212.332 183.169 213.592 184.094 214.821C184.966 215.979 186.037 216.661 187.308 216.868C188.584 217.072 189.774 216.758 190.879 215.926C191.852 215.193 192.44 214.29 192.643 213.216C192.846 212.135 192.628 211.094 191.986 210.095L189.214 212.182L188.435 211.147Z" fill="#F0F0F0"/>
<path d="M197.674 198.641L199.561 203.135L202.24 200.346L197.674 198.641ZM195.369 196.427L208.31 201.192L207.223 202.324L203.443 200.879L200.154 204.303L201.749 208.023L200.662 209.154L195.369 196.427Z" fill="#F0F0F0"/>
<path d="M212.73 195.81L202.34 188.623L215.384 186.836L207.793 181.586L208.577 180.452L218.96 187.634L206.004 189.483L213.514 194.677L212.73 195.81Z" fill="#F0F0F0"/>
<path d="M216.2 171.966L219.406 175.637L221.071 172.145L216.2 171.966ZM213.316 170.59L227.099 171.037L226.424 172.454L222.381 172.273L220.337 176.559L223.022 179.587L222.347 181.003L213.316 170.59Z" fill="#F0F0F0"/>
</svg>
