<svg width="249" height="249" viewBox="0 0 249 249" fill="none" xmlns="http://www.w3.org/2000/svg">
<circle cx="124.5" cy="124.5" r="124.5" fill="#1A3722"/>
<path d="M170.838 93.2106C170.838 97.5024 167.259 101.026 162.789 101.026C158.318 101.026 154.74 97.5024 154.74 93.2106C154.74 88.9187 158.318 85.3951 162.789 85.3951C167.259 85.3951 170.838 88.9187 170.838 93.2106Z" fill="#32441B" stroke="#E2E2E2" stroke-width="2"/>
<path d="M130.318 65.2085C114.704 57.2573 83.4766 43.7403 83.4766 53.2817C83.4766 62.8232 112.93 81.8023 127.657 90.0992C134.399 93.2105 149.268 98.9147 154.804 96.8404C160.34 94.7662 160.304 89.4078 159.595 86.9879M72.2983 130.547C70.7014 131.584 67.6141 134.176 68.0399 136.251C68.4657 138.325 99.0905 167.883 114.35 182.402C116.479 183.612 119.597 187.588 123.399 182.402C125.528 179.498 164.74 141.782 184.08 123.287L191 94.2476L161.724 65.2085L135.641 68.8384L72.2983 130.547Z" stroke="#E2E2E2" stroke-width="3" stroke-linecap="round"/>
<path d="M98.9131 152.844L108.494 143.51M127.125 127.435L111.688 140.399L110.091 141.955M108.494 143.51C105.833 141.091 101.255 134.384 104.236 126.917C107.217 119.449 109.382 133.831 110.091 141.955M108.494 143.51L110.091 141.955M108.494 143.51C111.333 146.276 117.304 149.733 120.737 149.733C129.786 149.733 127.125 144.548 112.22 141.436" stroke="#E2E2E2" stroke-width="3" stroke-linecap="round"/>
<path d="M118.608 133.139C117.189 126.225 119.566 112.708 140.432 113.953" stroke="#E2E2E2" stroke-width="3" stroke-linecap="round"/>
<path d="M119.673 134.176C125.173 139.189 137.238 142.266 141.497 114.471" stroke="#E2E2E2" stroke-width="3" stroke-linecap="round"/>
<path d="M40.4278 190.516C40.7173 191.486 40.759 192.362 40.5529 193.142C40.3509 193.928 39.9044 194.608 39.2134 195.182C38.2019 196.023 37.1174 196.378 35.9597 196.248C34.8112 196.119 33.7959 195.524 32.9138 194.462C32.194 193.596 31.811 192.687 31.7648 191.735C31.7236 190.779 32.0258 189.859 32.6714 188.975L34.2434 189.675C33.7106 190.389 33.4233 191.072 33.3815 191.724C33.349 192.378 33.5636 192.983 34.0254 193.538C34.5705 194.194 35.1993 194.569 35.9119 194.663C36.6295 194.752 37.2912 194.545 37.8971 194.041C38.3878 193.634 38.6949 193.137 38.8182 192.552C38.9507 191.968 38.905 191.287 38.681 190.508L38.1409 188.696C37.8389 187.712 37.7784 186.839 37.9595 186.079C38.1448 185.324 38.5729 184.668 39.2439 184.11C40.025 183.461 40.9123 183.215 41.9057 183.371C42.8991 183.528 43.7703 184.057 44.5192 184.958C45.0685 185.619 45.4026 186.306 45.5216 187.02C45.6448 187.739 45.5459 188.46 45.2248 189.184L43.635 188.677C43.8568 188.078 43.9434 187.54 43.8948 187.064C43.8513 186.584 43.6694 186.151 43.349 185.765C42.9412 185.275 42.4561 184.996 41.8935 184.931C41.3351 184.87 40.823 185.033 40.3574 185.42C39.9668 185.744 39.7287 186.145 39.643 186.623C39.5573 187.101 39.6144 187.684 39.8143 188.372L40.4278 190.516Z" fill="#F0F0F0"/>
<path d="M41.8724 203.711L51.5507 193.188L52.8014 194.339L44.2204 203.668L48.1953 207.324L47.0979 208.517L41.8724 203.711Z" fill="#F0F0F0"/>
<path d="M59.9649 216.629C60.6186 217.057 61.3198 217.341 62.0685 217.481C62.8263 217.619 63.5973 217.606 64.3814 217.442C65.1565 217.28 65.8609 216.983 66.4947 216.549C67.1284 216.116 67.6628 215.567 68.0978 214.903C68.5363 214.233 68.8282 213.513 68.9734 212.745C69.124 211.98 69.1194 211.214 68.9594 210.448C68.7976 209.673 68.5 208.968 68.0667 208.335C67.6388 207.704 67.0953 207.174 66.4362 206.742C65.7716 206.307 65.0623 206.018 64.3081 205.874C63.5539 205.731 62.7947 205.744 62.0305 205.913C61.2518 206.08 60.5438 206.383 59.9065 206.822C59.2691 207.26 58.7312 207.815 58.2926 208.485C57.8577 209.149 57.5675 209.854 57.4221 210.599C57.2821 211.348 57.2922 212.117 57.4524 212.907C57.618 213.7 57.912 214.41 58.3344 215.037C58.7623 215.667 59.3058 216.198 59.9649 216.629ZM69.5849 215.876C69.0251 216.731 68.3395 217.434 67.5279 217.984C66.7164 218.535 65.8157 218.906 64.826 219.099C63.8363 219.291 62.8413 219.29 61.8411 219.094C60.8499 218.897 59.9321 218.522 59.0878 217.969C58.2435 217.416 57.5325 216.725 56.9549 215.896C56.3863 215.065 55.9922 214.157 55.7726 213.173C55.5512 212.18 55.5275 211.2 55.7017 210.232C55.8814 209.268 56.2493 208.361 56.8055 207.511C57.3653 206.656 58.051 205.953 58.8625 205.403C59.6831 204.851 60.5927 204.477 61.5914 204.283C62.5722 204.092 63.5581 204.096 64.5493 204.293C65.5405 204.491 66.4583 204.866 67.3026 205.418C68.1524 205.975 68.8661 206.667 69.4437 207.497C70.0268 208.33 70.4271 209.234 70.6448 210.209C70.8644 211.193 70.8826 212.17 70.6994 213.139C70.5197 214.103 70.1482 215.015 69.5849 215.876Z" fill="#F0F0F0"/>
<path d="M77.0685 211.974L78.7757 212.649L78.2764 223.762L85.8675 214.845L85.3415 226.556L92.5971 218.116L94.3044 218.791L83.6923 230.567L84.2801 218.911L76.7543 227.822L77.0685 211.974Z" fill="#F0F0F0"/>
<path d="M113.659 236.676L114.476 222.403L122.003 222.833L121.914 224.383L116.084 224.05L115.849 228.145L121.68 228.478L121.589 230.058L115.759 229.724L115.356 236.773L113.659 236.676Z" fill="#F0F0F0"/>
<path d="M133.487 225.575L131.692 231.022L136.224 230.614L133.487 225.575ZM133.15 221.831L140.959 236.052L139.12 236.217L136.88 232.016L131.316 232.516L129.861 237.05L128.022 237.215L133.15 221.831Z" fill="#F0F0F0"/>
<path d="M151.342 225.75C152.34 225.918 153.144 226.267 153.754 226.796C154.37 227.324 154.783 228.025 154.993 228.898C155.301 230.177 155.142 231.307 154.514 232.288C153.892 233.262 152.91 233.91 151.568 234.234C150.473 234.498 149.488 234.44 148.613 234.062C147.737 233.677 147.045 233 146.537 232.031L147.858 230.929C148.264 231.722 148.75 232.281 149.317 232.606C149.889 232.924 150.527 232.998 151.229 232.829C152.058 232.629 152.672 232.23 153.07 231.632C153.467 231.027 153.573 230.342 153.389 229.576C153.239 228.956 152.929 228.461 152.459 228.092C151.993 227.716 151.361 227.456 150.563 227.314L148.7 226.999C147.683 226.836 146.873 226.505 146.271 226.007C145.675 225.508 145.275 224.834 145.071 223.986C144.833 222.999 145.003 222.094 145.582 221.271C146.161 220.449 147.02 219.9 148.159 219.626C148.994 219.425 149.759 219.428 150.452 219.636C151.151 219.843 151.755 220.25 152.263 220.857L151.106 222.06C150.666 221.597 150.222 221.282 149.773 221.115C149.323 220.943 148.854 220.915 148.367 221.032C147.747 221.182 147.283 221.494 146.976 221.97C146.675 222.444 146.595 222.976 146.737 223.565C146.856 224.058 147.111 224.449 147.502 224.736C147.892 225.024 148.441 225.23 149.147 225.354L151.342 225.75Z" fill="#F0F0F0"/>
<path d="M163.901 230.348L158.441 217.135L160.012 216.486L162.111 221.567L169.133 218.666L167.033 213.584L168.631 212.924L174.091 226.137L172.493 226.798L169.752 220.164L162.73 223.065L165.472 229.699L163.901 230.348Z" fill="#F0F0F0"/>
<path d="M182.304 221.784L175.129 209.418L176.599 208.565L183.773 220.931L182.304 221.784Z" fill="#F0F0F0"/>
<path d="M196.694 210.623C197.305 210.136 197.795 209.559 198.162 208.892C198.531 208.216 198.76 207.48 198.85 206.684C198.94 205.897 198.878 205.135 198.665 204.397C198.452 203.659 198.098 202.98 197.603 202.359C197.105 201.732 196.513 201.23 195.829 200.851C195.149 200.468 194.421 200.232 193.643 200.144C192.856 200.055 192.094 200.117 191.357 200.33C190.624 200.539 189.95 200.888 189.333 201.379C188.712 201.874 188.215 202.457 187.842 203.128C187.47 203.799 187.244 204.524 187.165 205.303C187.08 206.095 187.146 206.862 187.362 207.605C187.579 208.347 187.937 209.032 188.436 209.658C188.931 210.28 189.509 210.776 190.171 211.148C190.839 211.515 191.572 211.747 192.372 211.842C193.177 211.934 193.943 211.877 194.671 211.672C195.403 211.463 196.078 211.113 196.694 210.623ZM198.994 201.251C199.631 202.051 200.083 202.922 200.351 203.866C200.62 204.809 200.69 205.78 200.563 206.781C200.436 207.781 200.122 208.725 199.623 209.614C199.125 210.493 198.481 211.247 197.692 211.876C196.902 212.504 196.023 212.963 195.055 213.251C194.087 213.531 193.102 213.621 192.098 213.521C191.086 213.42 190.148 213.135 189.283 212.666C188.424 212.194 187.678 211.56 187.046 210.766C186.409 209.966 185.956 209.095 185.688 208.152C185.421 207.199 185.351 206.218 185.48 205.209C185.606 204.218 185.918 203.283 186.416 202.403C186.915 201.524 187.558 200.77 188.348 200.141C189.142 199.509 190.024 199.048 190.993 198.76C191.966 198.467 192.95 198.37 193.944 198.469C194.948 198.569 195.881 198.858 196.744 199.335C197.603 199.808 198.353 200.447 198.994 201.251Z" fill="#F0F0F0"/>
<path d="M209.711 200.62L198.424 190.95L213.905 190.441L205.658 183.376L206.713 182.145L217.993 191.808L202.608 192.4L210.766 199.389L209.711 200.62Z" fill="#F0F0F0"/>
</svg>
