<svg width="249" height="249" viewBox="0 0 249 249" fill="none" xmlns="http://www.w3.org/2000/svg">
<circle cx="124.5" cy="124.5" r="124.5" fill="#1A3722"/>
<path d="M165.526 58.4196C162.605 67.5277 161.144 78.6395 154.571 84.1044" stroke="#E2E2E2" stroke-width="2" stroke-linecap="round"/>
<path d="M128.828 83.5579C127.55 80.8255 126.417 73.5026 132.114 63.8844" stroke="#E2E2E2" stroke-width="2" stroke-linecap="round"/>
<path d="M120.063 96.127C126.454 87.2011 142.083 68.3656 153.476 64.4309" stroke="#E2E2E2" stroke-width="2.5" stroke-linecap="round" stroke-linejoin="round"/>
<path d="M132.114 63.8845C136.496 59.8769 149.422 53.1734 166.074 58.4196" stroke="#E2E2E2" stroke-width="2" stroke-linecap="round"/>
<path d="M156.214 82.4649C152.198 87.0189 140.001 95.0341 129.923 86.2903" stroke="#E2E2E2" stroke-width="2" stroke-linecap="round"/>
<path d="M85.4116 51.9261C87.8716 61.0342 89.1016 72.146 94.6367 77.6109" stroke="#E2E2E2" stroke-width="2" stroke-linecap="round"/>
<path d="M116.316 77.0644C117.392 74.332 118.345 67.0091 113.548 57.391" stroke="#E2E2E2" stroke-width="2" stroke-linecap="round"/>
<path d="M123.696 89.6335C118.315 80.7076 105.153 61.8721 95.5592 57.9374" stroke="#E2E2E2" stroke-width="2.5" stroke-linecap="round" stroke-linejoin="round"/>
<path d="M113.548 57.391C109.858 53.3834 98.9725 46.6799 84.9503 51.9261" stroke="#E2E2E2" stroke-width="2" stroke-linecap="round"/>
<path d="M93.253 75.9714C96.6356 80.5254 106.906 88.5406 115.393 79.7968" stroke="#E2E2E2" stroke-width="2" stroke-linecap="round"/>
<path d="M99.4799 109.74L176.971 116.234C179.998 116.883 183.63 117.792 181.209 121.429C178.787 125.065 155.177 135.714 143.674 141.558" stroke="#E2E2E2" stroke-width="3" stroke-linecap="round"/>
<path d="M175.154 118.182L141.252 135.065C138.225 137.662 136.409 141.708 136.409 148.701C136.409 151.948 140.647 149.351 176.365 130.519" stroke="#E2E2E2" stroke-width="3" stroke-linecap="round"/>
<path d="M135.804 150L68.6046 136.364C67.3938 134.416 65.6986 131.299 68.6045 126.623" stroke="#E2E2E2" stroke-width="3" stroke-linecap="round"/>
<path d="M98.8745 109.74L69.8154 125.325" stroke="#E2E2E2" stroke-width="3" stroke-linecap="round"/>
<path d="M10.2571 111.566L19.308 108.633L11.2305 106.33L11.3642 104.926L23.7077 108.576L13.2981 111.855L22.9026 117.038L10.0921 118.296L10.2258 116.891L18.5941 116.136L10.2571 111.566Z" fill="white"/>
<path d="M19.8249 129.476L15.2345 127.837L15.486 131.697L19.8249 129.476ZM23.014 129.269L10.7662 135.607L10.6643 134.041L14.2809 132.225L13.9723 127.487L10.1506 126.155L10.0486 124.59L23.014 129.269Z" fill="white"/>
<path d="M12.2425 144.512L22.8057 142.39L22.1287 139.02L23.4797 138.749L25.1182 146.903L23.7673 147.175L23.0935 143.822L12.5303 145.945L12.2425 144.512Z" fill="white"/>
<path d="M15.1263 156.285L26.6515 152.432L28.6835 158.509L27.4318 158.928L25.8577 154.22L22.5513 155.326L24.1254 160.033L22.85 160.46L21.276 155.752L16.8596 157.229L18.4336 161.936L17.1583 162.363L15.1263 156.285Z" fill="white"/>
<path d="M20.1127 169.64L31.0474 164.337L32.2932 166.907C32.6482 167.639 32.8654 168.195 32.9449 168.574C33.0318 168.956 33.0385 169.325 32.9649 169.681C32.8678 170.128 32.6487 170.544 32.3074 170.931C31.971 171.316 31.544 171.634 31.0261 171.885C30.1298 172.319 29.3257 172.399 28.6138 172.123C27.9093 171.849 27.3228 171.23 26.8544 170.264L26.7421 170.032L23.5532 176.735L22.7528 175.084L26.0323 168.568L25.9418 168.381L20.7284 170.909L20.1127 169.64ZM30.5651 166.14L26.9053 167.914L27.387 168.908C27.8795 169.923 28.3385 170.54 28.764 170.758C29.1945 170.974 29.7359 170.924 30.3882 170.607C31.0903 170.267 31.4951 169.852 31.6025 169.364C31.7149 168.872 31.5297 168.129 31.0468 167.133L30.5651 166.14Z" fill="white"/>
<path d="M27.2856 183.075L37.5655 176.594L38.3357 177.816L28.0559 184.297L27.2856 183.075Z" fill="white"/>
<path d="M42.7449 188.628L38.0472 189.928L40.4735 192.941L42.7449 188.628ZM45.2338 186.623L38.8619 198.853L37.8779 197.632L39.7914 194.066L36.8132 190.368L32.9212 191.477L31.9372 190.255L45.2338 186.623Z" fill="white"/>
<path d="M43.654 203.81L52.061 195.035L53.1039 196.034L45.6502 203.815L48.9648 206.99L48.0116 207.985L43.654 203.81Z" fill="white"/>
<path d="M53.5241 212.63L60.8209 202.912L65.9453 206.76L65.1528 207.816L61.1834 204.835L59.0901 207.623L63.0595 210.604L62.2521 211.679L58.2826 208.698L55.4865 212.422L59.456 215.403L58.6486 216.478L53.5241 212.63Z" fill="white"/>
<path d="M72.4043 217.111C72.9235 217.797 73.2173 218.482 73.2856 219.165C73.3586 219.85 73.2056 220.525 72.8263 221.188C72.2712 222.158 71.5134 222.764 70.5531 223.005C69.6002 223.244 68.6146 223.072 67.5964 222.489C66.7654 222.014 66.1898 221.404 65.8697 220.66C65.5523 219.911 65.5191 219.088 65.7701 218.193L67.23 218.282C67.0182 219.009 66.9928 219.638 67.1539 220.17C67.3224 220.7 67.6733 221.118 68.2064 221.423C68.8357 221.783 69.4479 221.894 70.043 221.757C70.641 221.614 71.1062 221.252 71.4387 220.671C71.708 220.2 71.8047 219.714 71.7288 219.211C71.6604 218.707 71.4212 218.178 71.011 217.624L70.0418 216.343C69.5082 215.649 69.2004 214.972 69.1184 214.313C69.0411 213.657 69.1867 213.007 69.5549 212.363C69.9836 211.614 70.6167 211.154 71.4542 210.983C72.2917 210.812 73.1427 210.973 74.0073 211.468C74.6414 211.831 75.112 212.278 75.4192 212.811C75.7312 213.347 75.8671 213.951 75.827 214.623L74.4102 214.692C74.4085 214.149 74.3174 213.695 74.1371 213.331C73.9595 212.961 73.6858 212.671 73.3159 212.459C72.8452 212.19 72.3761 212.113 71.9086 212.228C71.4459 212.345 71.0868 212.628 70.8312 213.074C70.6169 213.449 70.5466 213.839 70.6206 214.245C70.6945 214.651 70.9135 215.098 71.2777 215.587L72.4043 217.111Z" fill="white"/>
<path d="M96.2006 233.797L98.8066 223.342L96.3984 222.742L97.4929 221.715L100.481 222.459L97.5698 234.138L96.2006 233.797Z" fill="white"/>
<path d="M112.562 237.083C111.257 236.95 110.285 236.288 109.644 235.099C109.01 233.905 108.793 232.33 108.994 230.376C109.193 228.433 109.721 226.943 110.578 225.907C111.442 224.867 112.52 224.413 113.814 224.545C115.135 224.681 116.111 225.337 116.741 226.514C117.371 227.691 117.585 229.265 117.383 231.236C117.182 233.201 116.653 234.702 115.795 235.738C114.944 236.769 113.866 237.217 112.562 237.083ZM112.666 235.901C113.553 235.992 114.268 235.631 114.813 234.819C115.364 234.002 115.725 232.763 115.895 231.1C116.066 229.432 115.965 228.142 115.591 227.231C115.223 226.314 114.596 225.81 113.71 225.719C112.857 225.632 112.145 226.01 111.575 226.852C111.01 227.69 110.646 228.91 110.482 230.512C110.316 232.125 110.424 233.404 110.806 234.35C111.193 235.297 111.813 235.813 112.666 235.901Z" fill="white"/>
<path d="M128.868 237.657C127.558 237.71 126.501 237.193 125.699 236.106C124.902 235.014 124.465 233.486 124.386 231.523C124.308 229.571 124.62 228.022 125.322 226.875C126.029 225.722 127.032 225.12 128.332 225.068C129.659 225.015 130.717 225.527 131.508 226.603C132.299 227.679 132.734 229.206 132.813 231.186C132.892 233.16 132.581 234.72 131.879 235.867C131.182 237.008 130.179 237.605 128.868 237.657ZM128.804 236.472C129.694 236.436 130.352 235.978 130.776 235.097C131.206 234.21 131.387 232.932 131.321 231.262C131.254 229.587 130.971 228.324 130.471 227.475C129.978 226.62 129.285 226.21 128.395 226.245C127.538 226.28 126.887 226.754 126.442 227.669C126.002 228.578 125.814 229.838 125.878 231.447C125.943 233.067 126.231 234.318 126.743 235.2C127.26 236.082 127.947 236.506 128.804 236.472Z" fill="white"/>
<path d="M151.525 231.476C151.714 232.454 151.647 233.256 151.323 233.883C151.003 234.502 150.457 234.887 149.686 235.036C148.92 235.184 148.267 235.029 147.727 234.569C147.187 234.11 146.823 233.394 146.635 232.422C146.447 231.449 146.518 230.649 146.848 230.022C147.177 229.394 147.725 229.007 148.491 228.859C149.263 228.709 149.913 228.866 150.442 229.327C150.976 229.787 151.337 230.504 151.525 231.476ZM149.525 234.205C149.927 234.127 150.199 233.872 150.341 233.438C150.482 233.005 150.483 232.427 150.344 231.705C150.2 230.96 149.985 230.421 149.701 230.087C149.416 229.748 149.066 229.618 148.654 229.698C148.257 229.775 147.988 230.03 147.846 230.463C147.703 230.891 147.702 231.466 147.842 232.188C147.981 232.911 148.198 233.447 148.491 233.796C148.784 234.145 149.128 234.282 149.525 234.205ZM141.734 229.286C142.136 229.208 142.408 228.953 142.55 228.519C142.691 228.086 142.692 227.508 142.553 226.786C142.409 226.041 142.194 225.499 141.909 225.16C141.622 224.815 141.272 224.683 140.86 224.763C140.463 224.839 140.194 225.097 140.054 225.536C139.912 225.969 139.911 226.547 140.051 227.269C140.19 227.992 140.407 228.528 140.7 228.877C140.993 229.226 141.338 229.363 141.734 229.286ZM143.751 226.554C143.939 227.527 143.87 228.323 143.545 228.944C143.22 229.565 142.669 229.951 141.892 230.101C141.12 230.25 140.465 230.098 139.926 229.644C139.393 229.189 139.033 228.475 138.845 227.503C138.656 226.53 138.727 225.73 139.057 225.103C139.386 224.475 139.934 224.088 140.7 223.94C141.472 223.79 142.125 223.946 142.659 224.406C143.199 224.866 143.563 225.581 143.751 226.554ZM142.392 236.446L146.862 222.748L147.864 222.554L143.41 236.25L142.392 236.446Z" fill="white"/>
<path d="M179.275 222.416C179.857 222.097 180.351 221.684 180.755 221.178C181.161 220.665 181.459 220.082 181.65 219.428C181.838 218.782 181.896 218.134 181.824 217.486C181.753 216.837 181.554 216.217 181.229 215.625C180.902 215.028 180.479 214.522 179.96 214.106C179.446 213.687 178.87 213.385 178.231 213.199C177.585 213.011 176.938 212.952 176.289 213.024C175.645 213.093 175.03 213.289 174.443 213.611C173.851 213.936 173.351 214.353 172.942 214.861C172.533 215.37 172.239 215.944 172.061 216.585C171.875 217.236 171.819 217.889 171.894 218.542C171.969 219.195 172.17 219.821 172.497 220.417C172.822 221.009 173.235 221.508 173.736 221.915C174.242 222.319 174.823 222.619 175.479 222.814C176.14 223.007 176.79 223.07 177.429 223.004C178.073 222.934 178.688 222.739 179.275 222.416ZM182.554 214.898C182.972 215.66 183.225 216.455 183.314 217.284C183.403 218.113 183.321 218.937 183.07 219.756C182.819 220.576 182.421 221.321 181.874 221.994C181.33 222.658 180.682 223.197 179.93 223.61C179.178 224.023 178.376 224.28 177.523 224.382C176.672 224.476 175.834 224.409 175.008 224.181C174.174 223.95 173.429 223.576 172.773 223.059C172.121 222.539 171.588 221.901 171.173 221.144C170.755 220.382 170.501 219.587 170.413 218.758C170.326 217.922 170.409 217.091 170.663 216.264C170.911 215.452 171.308 214.713 171.852 214.049C172.396 213.384 173.044 212.845 173.796 212.432C174.553 212.017 175.358 211.758 176.211 211.656C177.069 211.552 177.907 211.613 178.725 211.839C179.551 212.067 180.292 212.444 180.946 212.969C181.597 213.488 182.133 214.132 182.554 214.898Z" fill="white"/>
<path d="M191.951 215.693L184.525 206.073L186.786 204.328C187.429 203.831 187.929 203.505 188.284 203.349C188.641 203.186 189.001 203.104 189.364 203.104C189.821 203.107 190.274 203.237 190.722 203.492C191.167 203.742 191.566 204.095 191.917 204.551C192.526 205.339 192.768 206.11 192.643 206.864C192.52 207.609 192.033 208.31 191.183 208.966L190.98 209.123L198.193 210.874L196.741 211.995L189.692 210.117L189.527 210.244L193.068 214.831L191.951 215.693ZM186.388 206.177L188.873 209.396L189.747 208.722C190.641 208.032 191.151 207.457 191.277 206.995C191.4 206.53 191.24 206.01 190.797 205.436C190.32 204.819 189.832 204.507 189.332 204.502C188.828 204.492 188.138 204.826 187.262 205.502L186.388 206.177Z" fill="white"/>
<path d="M203.851 196.805L207.314 193.179L207.608 193.46C208.993 194.783 209.71 196.218 209.762 197.767C209.813 199.316 209.191 200.769 207.895 202.125C207.502 202.537 207.081 202.89 206.634 203.182C206.19 203.47 205.733 203.692 205.263 203.847C204.179 204.189 203.102 204.224 202.031 203.951C200.956 203.674 199.974 203.112 199.086 202.263C198.354 201.564 197.804 200.817 197.437 200.023C197.071 199.221 196.889 198.37 196.891 197.47C196.894 196.715 197.049 195.983 197.358 195.275C197.666 194.568 198.124 193.896 198.732 193.259C199.538 192.415 200.392 191.83 201.292 191.504C202.189 191.174 203.14 191.099 204.147 191.28L204.012 192.827C203.178 192.635 202.403 192.648 201.688 192.868C200.969 193.085 200.311 193.505 199.715 194.129C198.74 195.15 198.293 196.307 198.374 197.6C198.455 198.894 199.051 200.072 200.164 201.135C201.212 202.136 202.38 202.636 203.668 202.633C204.959 202.627 206.083 202.124 207.038 201.123C207.879 200.243 208.313 199.256 208.338 198.164C208.364 197.063 207.979 196.072 207.184 195.19L204.787 197.7L203.851 196.805Z" fill="white"/>
<path d="M210.988 182.961L213.56 187.101L215.766 183.924L210.988 182.961ZM208.363 181.138L221.894 183.803L220.999 185.092L217.038 184.261L214.33 188.161L216.492 191.582L215.597 192.871L208.363 181.138ZM207.096 181.683L205.689 178.644L206.64 177.274L207.664 180.865L207.096 181.683Z" fill="white"/>
<path d="M225.418 177.808L214.051 172.296L226.668 168.534L218.362 164.507L218.964 163.267L230.324 168.775L217.804 172.584L226.02 176.568L225.418 177.808Z" fill="white"/>
<path d="M233.078 160.137L221.553 156.284L222.011 154.914L233.536 158.768L233.078 160.137Z" fill="white"/>
<path d="M228.954 138.859C228.221 139.304 227.643 139.82 227.22 140.407C226.792 140.993 226.499 141.676 226.342 142.458C226.216 143.087 226.22 143.728 226.354 144.382C226.489 145.03 226.74 145.619 227.107 146.15C227.488 146.701 227.948 147.149 228.488 147.495C229.023 147.839 229.643 148.082 230.348 148.224C230.902 148.335 231.425 148.37 231.919 148.328C232.413 148.286 232.882 148.169 233.328 147.976C234.102 147.635 234.743 147.154 235.252 146.534C235.756 145.907 236.089 145.189 236.251 144.381C236.404 143.621 236.388 142.884 236.205 142.17C236.021 141.456 235.671 140.768 235.155 140.105L237.035 140.483C237.344 141.16 237.542 141.863 237.627 142.591C237.708 143.313 237.675 144.038 237.529 144.765C237.402 145.394 237.184 145.988 236.875 146.547C236.57 147.106 236.187 147.611 235.724 148.06C234.947 148.807 234.073 149.322 233.102 149.607C232.131 149.886 231.12 149.92 230.067 149.708C229.15 149.524 228.348 149.205 227.66 148.751C226.968 148.29 226.379 147.683 225.892 146.931C225.428 146.205 225.127 145.445 224.988 144.649C224.843 143.852 224.858 143.017 225.034 142.144C225.172 141.455 225.412 140.809 225.753 140.206C226.089 139.601 226.54 139.029 227.106 138.488L228.954 138.859Z" fill="white"/>
<path d="M238.224 126.292C238.244 125.629 238.138 124.994 237.907 124.39C237.67 123.779 237.318 123.226 236.851 122.731C236.39 122.241 235.861 121.863 235.266 121.596C234.67 121.329 234.035 121.186 233.36 121.166C232.68 121.146 232.029 121.254 231.407 121.49C230.786 121.721 230.233 122.065 229.749 122.521C229.259 122.983 228.881 123.511 228.614 124.107C228.348 124.697 228.205 125.327 228.185 125.996C228.165 126.671 228.271 127.313 228.502 127.924C228.733 128.534 229.079 129.078 229.541 129.557C230.008 130.047 230.543 130.425 231.144 130.692C231.745 130.959 232.386 131.103 233.066 131.123C233.741 131.143 234.381 131.04 234.985 130.814C235.59 130.583 236.143 130.234 236.644 129.767C237.145 129.294 237.529 128.766 237.795 128.181C238.062 127.591 238.205 126.962 238.224 126.292ZM233.405 119.656C234.273 119.682 235.087 119.866 235.846 120.21C236.606 120.553 237.275 121.041 237.854 121.672C238.434 122.304 238.875 123.026 239.177 123.837C239.474 124.643 239.61 125.475 239.585 126.332C239.56 127.19 239.375 128.012 239.031 128.799C238.681 129.58 238.198 130.269 237.583 130.866C236.962 131.467 236.262 131.92 235.483 132.224C234.705 132.522 233.884 132.658 233.021 132.633C232.153 132.607 231.339 132.423 230.58 132.079C229.815 131.73 229.14 131.236 228.556 130.599C227.982 129.973 227.546 129.257 227.249 128.451C226.951 127.645 226.815 126.814 226.841 125.956C226.866 125.093 227.051 124.268 227.395 123.481C227.74 122.689 228.217 121.997 228.827 121.406C229.442 120.81 230.142 120.362 230.926 120.064C231.704 119.766 232.531 119.63 233.405 119.656Z" fill="white"/>
<path d="M231.603 108.395C231.842 107.568 232.215 106.923 232.722 106.46C233.228 105.991 233.86 105.711 234.618 105.618C235.727 105.483 236.666 105.728 237.433 106.353C238.195 106.974 238.647 107.866 238.789 109.031C238.905 109.981 238.761 110.807 238.356 111.509C237.945 112.211 237.306 112.73 236.438 113.064L235.637 111.841C236.346 111.576 236.865 111.22 237.195 110.772C237.519 110.32 237.644 109.789 237.57 109.18C237.482 108.46 237.205 107.903 236.738 107.508C236.266 107.114 235.698 106.958 235.034 107.039C234.495 107.105 234.047 107.318 233.69 107.68C233.327 108.036 233.046 108.545 232.848 109.204L232.401 110.747C232.163 111.59 231.805 112.242 231.326 112.702C230.847 113.156 230.239 113.428 229.503 113.518C228.646 113.623 227.898 113.391 227.26 112.822C226.622 112.253 226.243 111.474 226.122 110.485C226.033 109.76 226.111 109.115 226.354 108.551C226.596 107.98 226.999 107.51 227.562 107.14L228.464 108.234C228.03 108.56 227.721 108.905 227.537 109.267C227.347 109.631 227.278 110.024 227.33 110.447C227.395 110.985 227.614 111.407 227.986 111.713C228.357 112.013 228.798 112.132 229.309 112.07C229.738 112.018 230.092 111.84 230.373 111.539C230.654 111.237 230.882 110.794 231.055 110.209L231.603 108.395Z" fill="white"/>
</svg>
