<svg width="249" height="249" viewBox="0 0 249 249" fill="none" xmlns="http://www.w3.org/2000/svg">
<circle cx="124.5" cy="124.5" r="124.5" fill="#1A3722"/>
<path d="M177.102 147.34L174.666 149.642V143.888H178.32" stroke="#E2E2E2" stroke-width="3" stroke-linecap="round"/>
<path d="M150.915 107.059C150.306 106.1 149.453 103.952 150.915 103.031C152.376 102.11 164.516 95.3583 170.403 92.0975C171.621 91.3302 174.422 90.256 175.884 92.0975C177.345 93.9389 186.237 107.059 190.5 113.389V120.87L179.538 143.888L171.621 157.123H144.825L146.043 160L131.427 145.614L146.043 130.652V132.954H168.576L150.915 108.21" stroke="#E2E2E2" stroke-width="3" stroke-linecap="round"/>
<path d="M104.63 51.8163C98.7432 60.4479 87.3346 77.9415 88.7962 78.8622C90.2578 79.7829 104.021 87.6857 110.72 91.522" stroke="#E2E2E2" stroke-width="3" stroke-linecap="round"/>
<path d="M62 117.992L83.9242 158.274H118.637V132.379H106.457" stroke="#E2E2E2" stroke-width="3" stroke-linecap="round"/>
<path d="M97.9313 130.652H84.5332L77.2251 143.312L94.2773 115.115H97.9313L94.2773 94.3992L77.2251 97.2765L73.5711 102.455L62.609 117.992" stroke="#E2E2E2" stroke-width="3" stroke-linecap="round"/>
<path d="M111.938 92.0974L119.855 80.0131C117.419 84.0412 112.304 92.0974 111.329 92.0974" stroke="#E2E2E2" stroke-width="3" stroke-linecap="round"/>
<path d="M104.021 51.8162C104.833 51.049 107.188 49.6295 110.111 50.0899C113.035 50.5503 137.314 50.2817 149.088 50.0899L162.486 69.6551L166.14 71.9568L159.441 88.0693L142.389 83.4658L141.171 78.8622L132.036 65.3392M122.901 51.8162L132.036 65.3392M132.036 65.3392L129.6 63.9006L125.337 71.9568" stroke="#E2E2E2" stroke-width="3" stroke-linecap="round"/>
<path d="M18.9377 171.514L30.2222 165.74L28.8922 163.141L30.6495 163.317L32.2998 166.542L19.6939 172.992L18.9377 171.514Z" fill="#F0F0F0"/>
<path d="M27.8004 186.944C26.9069 185.686 26.7379 184.312 27.2936 182.824C27.8583 181.336 29.0828 179.924 30.9671 178.585C32.8407 177.254 34.5681 176.566 36.1492 176.521C37.7394 176.478 38.9775 177.08 39.8634 178.327C40.7683 179.601 40.9444 180.973 40.3918 182.444C39.8392 183.914 38.6128 185.324 36.7127 186.674C34.8178 188.02 33.0798 188.716 31.4987 188.761C29.9266 188.807 28.6939 188.201 27.8004 186.944ZM28.9276 186.119C29.5345 186.973 30.4085 187.327 31.5494 187.179C32.6994 187.033 34.0759 186.391 35.6788 185.252C37.2871 184.11 38.3495 183.02 38.8661 181.982C39.3918 180.946 39.3512 180.001 38.7442 179.146C38.1598 178.323 37.2737 177.987 36.0859 178.136C34.9071 178.286 33.5455 178.91 32.0009 180.007C30.4457 181.112 29.3977 182.199 28.8568 183.27C28.3196 184.347 28.3432 185.296 28.9276 186.119Z" fill="#F0F0F0"/>
<path d="M38.8397 200.339C37.7741 199.223 37.409 197.889 37.7442 196.335C38.0886 194.782 39.0966 193.208 40.7682 191.612C42.4304 190.025 44.0406 189.095 45.5987 188.822C47.166 188.55 48.4779 188.967 49.5345 190.074C50.6135 191.204 50.9856 192.536 50.6508 194.071C50.316 195.606 49.3058 197.178 47.62 198.788C45.939 200.393 44.3195 201.331 42.7614 201.604C41.2124 201.877 39.9052 201.455 38.8397 200.339ZM39.8362 199.361C40.5601 200.119 41.4758 200.342 42.5836 200.032C43.7005 199.722 44.97 198.888 46.392 197.53C47.8188 196.168 48.7129 194.936 49.0745 193.834C49.4454 192.733 49.2688 191.803 48.545 191.045C47.8481 190.316 46.9227 190.11 45.7687 190.429C44.624 190.748 43.3665 191.561 41.9963 192.869C40.6166 194.187 39.7363 195.414 39.3555 196.552C38.9791 197.695 39.1393 198.631 39.8362 199.361Z" fill="#F0F0F0"/>
<path d="M60.638 214.177C59.9278 215.11 59.1709 215.679 58.3672 215.885C57.5727 216.09 56.8077 215.912 56.0723 215.352C55.3421 214.796 54.9672 214.101 54.9474 213.267C54.9277 212.434 55.271 211.553 55.9772 210.626C56.6835 209.699 57.441 209.135 58.2499 208.933C59.0587 208.73 59.8282 208.908 60.5584 209.464C61.2938 210.024 61.6661 210.717 61.6755 211.543C61.6901 212.372 61.3442 213.25 60.638 214.177ZM56.676 214.56C57.0592 214.852 57.4964 214.89 57.9877 214.675C58.4789 214.46 58.9869 214.008 59.5116 213.319C60.0522 212.61 60.3576 211.999 60.4279 211.488C60.5021 210.972 60.3424 210.564 59.9488 210.264C59.5708 209.976 59.1361 209.939 58.6449 210.154C58.1576 210.364 57.6516 210.814 57.1269 211.502C56.6021 212.191 56.3013 212.801 56.2243 213.332C56.1474 213.862 56.298 214.272 56.676 214.56ZM54.8896 203.868C55.2728 204.16 55.7101 204.198 56.2013 203.983C56.6925 203.768 57.2005 203.317 57.7253 202.628C58.2658 201.918 58.5732 201.305 58.6474 200.789C58.7256 200.267 58.5678 199.857 58.1743 199.557C57.7962 199.269 57.3596 199.235 56.8645 199.455C56.3732 199.67 55.8652 200.122 55.3405 200.811C54.8157 201.5 54.5149 202.109 54.438 202.64C54.361 203.171 54.5116 203.58 54.8896 203.868ZM58.8671 203.498C58.1609 204.425 57.4079 204.989 56.6082 205.19C55.8085 205.391 55.0383 205.209 54.2978 204.645C53.5624 204.085 53.1829 203.39 53.1592 202.562C53.1407 201.738 53.4846 200.862 54.1908 199.935C54.8971 199.008 55.6546 198.443 56.4635 198.241C57.2723 198.039 58.0418 198.216 58.772 198.772C59.5074 199.333 59.8824 200.027 59.8969 200.857C59.9166 201.691 59.5734 202.571 58.8671 203.498ZM49.12 210.055L64.6446 203.246L65.6001 203.974L50.091 210.795L49.12 210.055Z" fill="#F0F0F0"/>
<path d="M88.4246 222.828C89.1607 223.523 89.635 224.259 89.8474 225.039C90.0658 225.82 90.0197 226.632 89.7089 227.475C89.2541 228.709 88.493 229.559 87.4258 230.026C86.3669 230.489 85.1899 230.482 83.8949 230.005C82.8381 229.615 82.0515 229.02 81.5349 228.219C81.0207 227.412 80.8218 226.464 80.9384 225.376L82.6496 225.195C82.5456 226.08 82.6389 226.815 82.9294 227.401C83.2283 227.983 83.7168 228.399 84.3948 228.649C85.1951 228.944 85.927 228.953 86.5907 228.678C87.2566 228.396 87.7258 227.885 87.9983 227.146C88.219 226.548 88.2363 225.964 88.0503 225.396C87.8726 224.824 87.4919 224.257 86.9081 223.695L85.5338 222.397C84.7793 221.696 84.2903 220.971 84.0666 220.222C83.8491 219.476 83.8912 218.693 84.193 217.875C84.5443 216.922 85.1891 216.265 86.1274 215.903C87.0657 215.541 88.0846 215.563 89.1841 215.968C89.9904 216.265 90.6238 216.693 91.0841 217.251C91.5505 217.812 91.8259 218.486 91.9103 219.273L90.2801 219.63C90.1722 219 89.9781 218.491 89.6978 218.104C89.4198 217.71 89.0456 217.426 88.5752 217.253C87.9766 217.032 87.4173 217.034 86.8973 217.259C86.3835 217.485 86.0218 217.883 85.8124 218.451C85.6368 218.928 85.6314 219.394 85.7962 219.85C85.9611 220.306 86.3024 220.783 86.8203 221.279L88.4246 222.828Z" fill="#F0F0F0"/>
<path d="M99.0821 219.615L100.767 219.957L98.9991 228.676C98.712 230.092 98.8011 231.193 99.2663 231.978C99.738 232.765 100.618 233.289 101.907 233.55C103.196 233.811 104.208 233.671 104.942 233.129C105.683 232.588 106.196 231.61 106.484 230.193L108.251 221.474L109.945 221.817L108.178 230.537C107.794 232.432 107.053 233.759 105.955 234.52C104.865 235.276 103.411 235.469 101.593 235.101C99.7807 234.733 98.5167 233.989 97.8008 232.867C97.0925 231.74 96.9305 230.23 97.3146 228.334L99.0821 219.615Z" fill="#F0F0F0"/>
<path d="M121.939 229.178C122.85 229.618 123.525 230.178 123.962 230.857C124.406 231.536 124.607 232.324 124.565 233.222C124.503 234.535 124.034 235.576 123.158 236.343C122.288 237.104 121.163 237.452 119.785 237.387C118.66 237.334 117.73 237.004 116.996 236.396C116.262 235.782 115.787 234.938 115.57 233.866L117.147 233.177C117.314 234.052 117.625 234.725 118.079 235.196C118.539 235.66 119.13 235.91 119.852 235.943C120.704 235.983 121.405 235.772 121.955 235.309C122.505 234.839 122.798 234.211 122.835 233.424C122.865 232.787 122.705 232.225 122.356 231.74C122.015 231.248 121.48 230.822 120.754 230.462L119.053 229.639C118.122 229.198 117.437 228.654 116.998 228.008C116.565 227.362 116.37 226.604 116.41 225.732C116.458 224.718 116.874 223.896 117.66 223.268C118.445 222.64 119.423 222.354 120.594 222.409C121.452 222.449 122.185 222.666 122.792 223.059C123.406 223.453 123.872 224.012 124.19 224.738L122.743 225.569C122.45 225.002 122.112 224.575 121.728 224.29C121.344 223.998 120.902 223.841 120.401 223.817C119.763 223.787 119.231 223.958 118.803 224.329C118.381 224.7 118.156 225.188 118.128 225.793C118.104 226.3 118.24 226.747 118.535 227.132C118.829 227.517 119.299 227.868 119.942 228.185L121.939 229.178Z" fill="#F0F0F0"/>
<path d="M135.152 236.81L134.021 224.185L129.994 224.546L129.849 222.931L139.596 222.058L139.74 223.673L135.733 224.032L136.864 236.657L135.152 236.81Z" fill="#F0F0F0"/>
<path d="M148.828 234.988L145.631 221.053L152.979 219.367L153.327 220.88L147.635 222.186L148.552 226.184L154.244 224.878L154.597 226.42L148.906 227.726L150.131 233.066L155.823 231.76L156.176 233.302L148.828 234.988Z" fill="#F0F0F0"/>
<path d="M164.65 230.849L159.096 217.063L173.067 223.752L169.009 213.68L170.512 213.074L176.063 226.851L162.139 220.279L166.153 230.243L164.65 230.849Z" fill="#F0F0F0"/>
<path d="M186.233 220.774L179.711 209.905L176.245 211.985L175.41 210.595L183.801 205.56L184.635 206.95L181.185 209.021L187.707 219.89L186.233 220.774Z" fill="#F0F0F0"/>
<path d="M194.26 201.73L195.828 207.245L199.352 204.366L194.26 201.73ZM191.881 198.818L206.322 206.212L204.893 207.38L200.681 205.159L196.356 208.693L197.694 213.263L196.264 214.431L191.881 198.818Z" fill="#F0F0F0"/>
<path d="M211.526 201.069L200.937 191.463L202.938 189.257C203.642 188.481 204.201 187.947 204.616 187.655C205.03 187.353 205.454 187.158 205.887 187.067C206.444 186.957 207.003 186.99 207.565 187.165C208.126 187.332 208.641 187.627 209.108 188.051C209.668 188.559 210.013 189.118 210.144 189.729C210.28 190.336 210.19 190.962 209.876 191.609C210.541 191.07 211.272 190.831 212.067 190.894C212.863 190.947 213.615 191.296 214.324 191.939C214.748 192.324 215.083 192.768 215.329 193.272C215.575 193.777 215.71 194.291 215.736 194.815C215.759 195.381 215.631 195.938 215.354 196.486C215.076 197.034 214.467 197.827 213.527 198.863L211.526 201.069ZM207.679 195.339L211.542 198.842L212.428 197.866C213.036 197.196 213.446 196.689 213.66 196.347C213.878 196 214.003 195.678 214.035 195.382C214.077 195.025 214.018 194.659 213.857 194.284C213.696 193.91 213.449 193.571 213.116 193.269C212.731 192.919 212.328 192.69 211.908 192.582C211.487 192.473 211.069 192.489 210.652 192.629C210.397 192.706 210.148 192.836 209.903 193.018C209.659 193.2 209.324 193.525 208.9 193.993L208.565 194.362L207.679 195.339ZM203.144 191.225L206.688 194.44L207.574 193.463C208.388 192.566 208.831 191.817 208.903 191.214C208.975 190.611 208.702 190.03 208.085 189.47C207.405 188.853 206.775 188.594 206.194 188.691C205.613 188.779 204.892 189.298 204.03 190.248L203.144 191.225Z" fill="#F0F0F0"/>
<path d="M222.645 187.826L210.85 179.746L211.81 178.344L222.268 185.508L225.32 181.053L226.657 181.969L222.645 187.826Z" fill="#F0F0F0"/>
<path d="M230.831 174.915L218.075 168.457L221.481 161.731L222.866 162.433L220.228 167.643L223.888 169.495L226.525 164.285L227.937 165L225.299 170.21L230.187 172.685L232.825 167.475L234.236 168.189L230.831 174.915Z" fill="#F0F0F0"/>
</svg>
