<svg width="20" height="20" viewBox="0 0 20 20" fill="none" xmlns="http://www.w3.org/2000/svg">
<path d="M13.0381 4.62477C12.43 4.62466 11.8463 4.8732 11.4124 5.31691C10.9785 5.76061 10.7292 6.36402 10.7181 6.99727L10.6957 8.30977C10.6944 8.38024 10.6788 8.44962 10.6499 8.51337C10.621 8.57712 10.5795 8.63379 10.5282 8.67967C10.4768 8.72555 10.4167 8.75959 10.3518 8.77957C10.2869 8.79955 10.2187 8.80501 10.1517 8.7956L8.90286 8.61894C7.25966 8.3856 5.68526 7.59727 4.17486 6.28644C3.69646 9.04477 4.63086 10.9556 6.88126 12.4298L8.27886 13.3448C8.34527 13.3882 8.40044 13.448 8.43954 13.5188C8.47865 13.5896 8.5005 13.6694 8.50318 13.751C8.50586 13.8327 8.4893 13.9137 8.45494 13.9872C8.42057 14.0606 8.36946 14.1242 8.30606 14.1723L7.03246 15.1414C7.79006 15.1906 8.50926 15.1556 9.10606 15.0323C12.8805 14.2473 15.3901 11.2889 15.3901 6.40894C15.3901 6.0106 14.5805 4.62477 13.0381 4.62477V4.62477ZM9.11806 6.96644C9.13203 6.16315 9.37317 5.38199 9.81131 4.72079C10.2494 4.05958 10.8651 3.5477 11.5812 3.24924C12.2973 2.95078 13.082 2.879 13.8371 3.04289C14.5921 3.20678 15.284 3.59906 15.8261 4.1706C16.3949 4.16644 16.8789 4.31644 17.9613 3.6331C17.6933 4.99977 17.5613 5.5931 16.9901 6.40894C16.9901 12.7773 13.2325 15.8739 9.41966 16.6664C6.80526 17.2098 3.00366 16.3173 1.91406 15.1323C2.46926 15.0873 4.72526 14.8348 6.02926 13.8406C4.92606 13.0831 0.534862 10.3914 3.42046 3.15477C4.77486 4.80227 6.14846 5.92394 7.54046 6.51894C8.46686 6.91477 8.69406 6.90644 9.11886 6.96727L9.11806 6.96644Z" fill="#F0F0F0"/>
</svg>
